# 3ds Max Wavefront OBJ Exporter v0.99 - (c)2007 guruware
# File Created: 12.05.2021 15:01:59

mtllib bonus node.mtl

#
# object Box001
#

v  -185.4263 29.3810 119.0654
v  -185.4263 29.3810 169.0654
v  -188.4263 26.3810 169.0654
v  -188.4263 26.3810 119.0654
v  -188.4263 32.3810 119.0654
v  -188.4263 32.3810 169.0654
v  -191.4263 29.3810 119.0654
v  -191.4263 29.3810 169.0654
v  -138.4263 29.3810 116.0654
v  -188.4263 29.3810 116.0654
v  -138.4263 32.3810 119.0654
v  -138.4263 26.3810 119.0654
v  -138.4263 29.3810 122.0654
v  -188.4263 29.3810 122.0654
v  -135.4263 29.3810 169.0654
v  -135.4263 29.3810 119.0654
v  -138.4263 32.3810 169.0654
v  -138.4263 26.3810 169.0654
v  -141.4263 29.3810 169.0654
v  -141.4263 29.3810 119.0654
v  -188.4263 29.3810 166.0654
v  -138.4263 29.3810 166.0654
v  -188.4263 29.3810 172.0654
v  -138.4263 29.3810 172.0654
v  -88.4263 29.3810 116.0654
v  -88.4263 32.3810 119.0654
v  -88.4263 26.3810 119.0654
v  -88.4263 29.3810 122.0654
v  -85.4263 29.3810 169.0654
v  -85.4263 29.3810 119.0654
v  -88.4263 32.3810 169.0654
v  -88.4263 26.3810 169.0654
v  -91.4263 29.3810 169.0654
v  -91.4263 29.3810 119.0654
v  -88.4263 29.3810 166.0654
v  -88.4263 29.3810 172.0654
v  -185.4263 29.3810 69.0654
v  -188.4263 26.3810 69.0654
v  -188.4263 32.3810 69.0654
v  -191.4263 29.3810 69.0654
v  -138.4263 29.3810 66.0654
v  -188.4263 29.3810 66.0654
v  -138.4263 32.3810 69.0654
v  -138.4263 26.3810 69.0654
v  -138.4263 29.3810 72.0654
v  -188.4263 29.3810 72.0654
v  -135.4263 29.3810 69.0654
v  -141.4263 29.3810 69.0654
v  -88.4263 29.3810 66.0654
v  -88.4263 32.3810 69.0654
v  -88.4263 26.3810 69.0654
v  -88.4263 29.3810 72.0654
v  -85.4263 29.3810 69.0654
v  -91.4263 29.3810 69.0654
v  -138.4263 129.3810 166.0654
v  -188.4263 129.3810 166.0654
v  -188.4263 132.3810 169.0654
v  -138.4263 132.3810 169.0654
v  -138.4263 126.3810 169.0654
v  -188.4263 126.3810 169.0654
v  -138.4263 129.3810 172.0654
v  -188.4263 129.3810 172.0654
v  -135.4263 129.3810 119.0654
v  -135.4263 129.3810 169.0654
v  -138.4263 126.3810 119.0654
v  -138.4263 132.3810 119.0654
v  -141.4263 129.3810 119.0654
v  -141.4263 129.3810 169.0654
v  -188.4263 129.3810 116.0654
v  -138.4263 129.3810 116.0654
v  -188.4263 126.3810 119.0654
v  -188.4263 132.3810 119.0654
v  -188.4263 129.3810 122.0654
v  -138.4263 129.3810 122.0654
v  -185.4263 129.3810 169.0654
v  -185.4263 129.3810 119.0654
v  -191.4263 129.3810 169.0654
v  -191.4263 129.3810 119.0654
v  -88.4263 129.3810 166.0654
v  -88.4263 132.3810 169.0654
v  -88.4263 126.3810 169.0654
v  -88.4263 129.3810 172.0654
v  -85.4263 129.3810 119.0654
v  -85.4263 129.3810 169.0654
v  -88.4263 126.3810 119.0654
v  -88.4263 132.3810 119.0654
v  -91.4263 129.3810 119.0654
v  -91.4263 129.3810 169.0654
v  -88.4263 129.3810 116.0654
v  -88.4263 129.3810 122.0654
v  -135.4263 129.3810 69.0654
v  -138.4263 126.3810 69.0654
v  -138.4263 132.3810 69.0654
v  -141.4263 129.3810 69.0654
v  -188.4263 129.3810 66.0654
v  -138.4263 129.3810 66.0654
v  -188.4263 126.3810 69.0654
v  -188.4263 132.3810 69.0654
v  -188.4263 129.3810 72.0654
v  -138.4263 129.3810 72.0654
v  -185.4263 129.3810 69.0654
v  -191.4263 129.3810 69.0654
v  -85.4263 129.3810 69.0654
v  -88.4263 126.3810 69.0654
v  -88.4263 132.3810 69.0654
v  -91.4263 129.3810 69.0654
v  -88.4263 129.3810 66.0654
v  -88.4263 129.3810 72.0654
v  -135.4263 79.3810 169.0654
v  -138.4263 79.3810 166.0654
v  -138.4263 79.3810 172.0654
v  -141.4263 79.3810 169.0654
v  -188.4263 79.3810 166.0654
v  -138.4263 76.3810 169.0654
v  -188.4263 76.3810 169.0654
v  -188.4263 82.3810 169.0654
v  -138.4263 82.3810 169.0654
v  -188.4263 79.3810 172.0654
v  -185.4263 79.3810 169.0654
v  -191.4263 79.3810 169.0654
v  -85.4263 79.3810 169.0654
v  -88.4263 79.3810 166.0654
v  -88.4263 79.3810 172.0654
v  -91.4263 79.3810 169.0654
v  -88.4263 76.3810 169.0654
v  -88.4263 82.3810 169.0654
v  -85.4263 79.3810 119.0654
v  -88.4263 79.3810 116.0654
v  -88.4263 79.3810 122.0654
v  -91.4263 79.3810 119.0654
v  -88.4263 82.3810 119.0654
v  -88.4263 76.3810 119.0654
v  -85.4263 79.3810 69.0654
v  -88.4263 79.3810 66.0654
v  -88.4263 79.3810 72.0654
v  -91.4263 79.3810 69.0654
v  -88.4263 82.3810 69.0654
v  -88.4263 76.3810 69.0654
v  -135.4263 79.3810 69.0654
v  -138.4263 79.3810 66.0654
v  -138.4263 79.3810 72.0654
v  -141.4263 79.3810 69.0654
v  -138.4263 82.3810 69.0654
v  -138.4263 76.3810 69.0654
v  -185.4263 79.3810 69.0654
v  -188.4263 79.3810 66.0654
v  -188.4263 79.3810 72.0654
v  -191.4263 79.3810 69.0654
v  -188.4263 82.3810 69.0654
v  -188.4263 76.3810 69.0654
v  -185.4263 79.3810 119.0654
v  -188.4263 79.3810 116.0654
v  -188.4263 79.3810 122.0654
v  -191.4263 79.3810 119.0654
v  -188.4263 76.3810 119.0654
v  -188.4263 82.3810 119.0654
# 156 vertices

vn 1.0000 0.0000 -0.0000
vn 0.0000 -1.0000 -0.0000
vn 0.0000 1.0000 -0.0000
vn -1.0000 0.0000 -0.0000
vn 0.0000 -0.0000 -1.0000
vn 0.0000 -1.0000 0.0000
vn 0.0000 0.0000 1.0000
vn 1.0000 -0.0000 -0.0000
vn -0.0000 -1.0000 -0.0000
vn 0.0000 0.0000 -1.0000
vn 1.0000 0.0000 0.0000
vn -0.0000 0.0000 1.0000
vn -0.0000 0.0000 -1.0000
vn -1.0000 0.0000 0.0000
# 14 vertex normals

vt 0.0000 0.5000 0.0000
vt 0.0000 0.0000 0.0000
vt -0.1250 0.5000 0.0000
vt -0.2500 0.5000 0.0000
vt -0.3750 0.5000 0.0000
vt -0.5000 0.5000 0.0000
vt 0.1250 0.0000 0.0000
vt 0.2500 0.0000 0.0000
vt 0.3750 0.0000 0.0000
vt 0.5000 0.0000 0.0000
vt 0.0000 1.0000 0.0000
vt -0.1250 1.0000 0.0000
vt -0.2500 1.0000 0.0000
vt -0.3750 1.0000 0.0000
vt -0.5000 1.0000 0.0000
# 15 texture coords

o Box001
g Box001
usemtl azdefrgth
s off
f 1/1/1 2/2/1 3/2/2 4/1/2 
f 5/1/3 6/2/3 2/2/1 1/1/1 
f 7/1/4 8/2/4 6/2/3 5/1/3 
f 4/1/2 3/2/2 8/2/4 7/1/4 
f 9/3/5 10/3/5 5/1/3 11/1/3 
f 12/4/6 4/4/6 10/3/5 9/3/5 
f 13/5/7 14/5/7 4/4/6 12/4/6 
f 11/6/3 5/6/3 14/5/7 13/5/7 
f 15/2/8 16/1/8 11/1/3 17/2/3 
f 18/2/9 12/1/9 16/1/8 15/2/8 
f 19/2/4 20/1/4 12/1/9 18/2/9 
f 17/2/3 11/1/3 20/1/4 19/2/4 
f 21/7/10 22/7/10 18/2/2 3/2/2 
f 6/8/3 17/8/3 22/7/10 21/7/10 
f 23/9/7 24/9/7 17/8/3 6/8/3 
f 3/10/2 18/10/2 24/9/7 23/9/7 
f 25/3/5 9/3/5 11/1/3 26/1/3 
f 27/4/6 12/4/6 9/3/5 25/3/5 
f 28/5/7 13/5/7 12/4/6 27/4/6 
f 26/6/3 11/6/3 13/5/7 28/5/7 
f 29/2/1 30/1/1 26/1/3 31/2/3 
f 32/2/2 27/1/2 30/1/1 29/2/1 
f 33/2/4 34/1/4 27/1/2 32/2/2 
f 31/2/3 26/1/3 34/1/4 33/2/4 
f 22/7/10 35/7/10 32/2/2 18/2/2 
f 17/8/3 31/8/3 35/7/10 22/7/10 
f 24/9/7 36/9/7 31/8/3 17/8/3 
f 18/10/2 32/10/2 36/9/7 24/9/7 
f 37/11/1 1/1/1 4/1/2 38/11/2 
f 39/11/3 5/1/3 1/1/1 37/11/1 
f 40/11/4 7/1/4 5/1/3 39/11/3 
f 38/11/2 4/1/2 7/1/4 40/11/4 
f 41/12/10 42/12/10 39/11/3 43/11/3 
f 44/13/2 38/13/2 42/12/10 41/12/10 
f 45/14/7 46/14/7 38/13/2 44/13/2 
f 43/15/3 39/15/3 46/14/7 45/14/7 
f 16/1/8 47/11/8 43/11/3 11/1/3 
f 12/1/9 44/11/9 47/11/8 16/1/8 
f 20/1/4 48/11/4 44/11/9 12/1/9 
f 11/1/3 43/11/3 48/11/4 20/1/4 
f 49/12/10 41/12/10 43/11/3 50/11/3 
f 51/13/2 44/13/2 41/12/10 49/12/10 
f 52/14/7 45/14/7 44/13/2 51/13/2 
f 50/15/3 43/15/3 45/14/7 52/14/7 
f 30/1/1 53/11/1 50/11/3 26/1/3 
f 27/1/2 51/11/2 53/11/1 30/1/1 
f 34/1/4 54/11/4 51/11/2 27/1/2 
f 26/1/3 50/11/3 54/11/4 34/1/4 
f 55/7/10 56/7/10 57/2/3 58/2/3 
f 59/8/2 60/8/2 56/7/10 55/7/10 
f 61/9/7 62/9/7 60/8/2 59/8/2 
f 58/10/3 57/10/3 62/9/7 61/9/7 
f 63/1/1 64/2/1 59/2/2 65/1/2 
f 66/1/3 58/2/3 64/2/1 63/1/1 
f 67/1/4 68/2/4 58/2/3 66/1/3 
f 65/1/2 59/2/2 68/2/4 67/1/4 
f 69/3/10 70/3/10 65/1/2 71/1/2 
f 72/4/3 66/4/3 70/3/10 69/3/10 
f 73/5/7 74/5/7 66/4/3 72/4/3 
f 71/6/2 65/6/2 74/5/7 73/5/7 
f 75/2/1 76/1/1 72/1/3 57/2/3 
f 60/2/2 71/1/2 76/1/1 75/2/1 
f 77/2/4 78/1/4 71/1/2 60/2/2 
f 57/2/3 72/1/3 78/1/4 77/2/4 
f 79/7/10 55/7/10 58/2/3 80/2/3 
f 81/8/2 59/8/2 55/7/10 79/7/10 
f 82/9/7 61/9/7 59/8/2 81/8/2 
f 80/10/3 58/10/3 61/9/7 82/9/7 
f 83/1/1 84/2/1 81/2/2 85/1/2 
f 86/1/3 80/2/3 84/2/1 83/1/1 
f 87/1/4 88/2/4 80/2/3 86/1/3 
f 85/1/2 81/2/2 88/2/4 87/1/4 
f 70/3/10 89/3/10 85/1/2 65/1/2 
f 66/4/3 86/4/3 89/3/10 70/3/10 
f 74/5/7 90/5/7 86/4/3 66/4/3 
f 65/6/2 85/6/2 90/5/7 74/5/7 
f 91/11/1 63/1/1 65/1/2 92/11/2 
f 93/11/3 66/1/3 63/1/1 91/11/1 
f 94/11/4 67/1/4 66/1/3 93/11/3 
f 92/11/2 65/1/2 67/1/4 94/11/4 
f 95/12/10 96/12/10 92/11/2 97/11/2 
f 98/13/3 93/13/3 96/12/10 95/12/10 
f 99/14/7 100/14/7 93/13/3 98/13/3 
f 97/15/2 92/15/2 100/14/7 99/14/7 
f 76/1/1 101/11/1 98/11/3 72/1/3 
f 71/1/2 97/11/2 101/11/1 76/1/1 
f 78/1/4 102/11/4 97/11/2 71/1/2 
f 72/1/3 98/11/3 102/11/4 78/1/4 
f 103/11/1 83/1/1 85/1/2 104/11/2 
f 105/11/3 86/1/3 83/1/1 103/11/1 
f 106/11/4 87/1/4 86/1/3 105/11/3 
f 104/11/2 85/1/2 87/1/4 106/11/4 
f 96/12/10 107/12/10 104/11/2 92/11/2 
f 93/13/3 105/13/3 107/12/10 96/12/10 
f 100/14/7 108/14/7 105/13/3 93/13/3 
f 92/15/2 104/15/2 108/14/7 100/14/7 
f 109/1/1 15/2/1 22/2/10 110/1/10 
f 111/1/7 24/2/7 15/2/1 109/1/1 
f 112/1/4 19/2/4 24/2/7 111/1/7 
f 110/1/10 22/2/10 19/2/4 112/1/4 
f 113/3/5 110/3/5 114/1/6 115/1/6 
f 116/4/3 117/4/3 110/3/5 113/3/5 
f 118/5/7 111/5/7 117/4/3 116/4/3 
f 115/6/6 114/6/6 111/5/7 118/5/7 
f 2/2/11 119/1/11 118/1/12 23/2/12 
f 21/2/10 113/1/10 119/1/11 2/2/11 
f 8/2/4 120/1/4 113/1/10 21/2/10 
f 23/2/12 118/1/12 120/1/4 8/2/4 
f 121/1/11 29/2/11 35/2/10 122/1/10 
f 123/1/12 36/2/12 29/2/11 121/1/11 
f 124/1/4 33/2/4 36/2/12 123/1/12 
f 122/1/10 35/2/10 33/2/4 124/1/4 
f 110/3/5 122/3/5 125/1/6 114/1/6 
f 117/4/3 126/4/3 122/3/5 110/3/5 
f 111/5/7 123/5/7 126/4/3 117/4/3 
f 114/6/6 125/6/6 123/5/7 111/5/7 
f 64/11/1 109/1/1 110/1/10 55/11/10 
f 61/11/7 111/1/7 109/1/1 64/11/1 
f 68/11/4 112/1/4 111/1/7 61/11/7 
f 55/11/10 110/1/10 112/1/4 68/11/4 
f 119/1/11 75/11/11 62/11/12 118/1/12 
f 113/1/10 56/11/10 75/11/11 119/1/11 
f 120/1/4 77/11/4 56/11/10 113/1/10 
f 118/1/12 62/11/12 77/11/4 120/1/4 
f 84/11/11 121/1/11 122/1/10 79/11/10 
f 82/11/12 123/1/12 121/1/11 84/11/11 
f 88/11/4 124/1/4 123/1/12 82/11/12 
f 79/11/10 122/1/10 124/1/4 88/11/4 
f 127/1/1 30/2/1 25/2/10 128/1/10 
f 129/1/7 28/2/7 30/2/1 127/1/1 
f 130/1/4 34/2/4 28/2/7 129/1/7 
f 128/1/10 25/2/10 34/2/4 130/1/4 
f 121/3/8 127/3/8 131/1/3 126/1/3 
f 125/4/9 132/4/9 127/3/8 121/3/8 
f 124/5/4 130/5/4 132/4/9 125/4/9 
f 126/6/3 131/6/3 130/5/4 124/5/4 
f 133/1/11 53/2/11 49/2/10 134/1/10 
f 135/1/12 52/2/12 53/2/11 133/1/11 
f 136/1/4 54/2/4 52/2/12 135/1/12 
f 134/1/10 49/2/10 54/2/4 136/1/4 
f 127/3/8 133/3/8 137/1/3 131/1/3 
f 132/4/9 138/4/9 133/3/8 127/3/8 
f 130/5/4 136/5/4 138/4/9 132/4/9 
f 131/6/3 137/6/3 136/5/4 130/5/4 
f 83/11/1 127/1/1 128/1/10 89/11/10 
f 90/11/7 129/1/7 127/1/1 83/11/1 
f 87/11/4 130/1/4 129/1/7 90/11/7 
f 89/11/10 128/1/10 130/1/4 87/11/4 
f 103/11/11 133/1/11 134/1/10 107/11/10 
f 108/11/12 135/1/12 133/1/11 103/11/11 
f 106/11/4 136/1/4 135/1/12 108/11/12 
f 107/11/10 134/1/10 136/1/4 106/11/4 
f 139/1/1 47/2/1 41/2/10 140/1/10 
f 141/1/7 45/2/7 47/2/1 139/1/1 
f 142/1/4 48/2/4 45/2/7 141/1/7 
f 140/1/10 41/2/10 48/2/4 142/1/4 
f 134/3/5 140/3/5 143/1/3 137/1/3 
f 138/4/6 144/4/6 140/3/5 134/3/5 
f 135/5/7 141/5/7 144/4/6 138/4/6 
f 137/6/3 143/6/3 141/5/7 135/5/7 
f 145/1/1 37/2/1 42/2/13 146/1/13 
f 147/1/7 46/2/7 37/2/1 145/1/1 
f 148/1/14 40/2/14 46/2/7 147/1/7 
f 146/1/13 42/2/13 40/2/14 148/1/14 
f 140/3/5 146/3/5 149/1/3 143/1/3 
f 144/4/6 150/4/6 146/3/5 140/3/5 
f 141/5/7 147/5/7 150/4/6 144/4/6 
f 143/6/3 149/6/3 147/5/7 141/5/7 
f 91/11/1 139/1/1 140/1/10 96/11/10 
f 100/11/7 141/1/7 139/1/1 91/11/1 
f 94/11/4 142/1/4 141/1/7 100/11/7 
f 96/11/10 140/1/10 142/1/4 94/11/4 
f 101/11/1 145/1/1 146/1/13 95/11/13 
f 99/11/7 147/1/7 145/1/1 101/11/1 
f 102/11/14 148/1/14 147/1/7 99/11/7 
f 95/11/13 146/1/13 148/1/14 102/11/14 
f 151/1/1 1/2/1 10/2/10 152/1/10 
f 153/1/7 14/2/7 1/2/1 151/1/1 
f 154/1/4 7/2/4 14/2/7 153/1/7 
f 152/1/10 10/2/10 7/2/4 154/1/4 
f 145/3/8 151/3/8 155/1/9 150/1/9 
f 149/4/3 156/4/3 151/3/8 145/3/8 
f 148/5/4 154/5/4 156/4/3 149/4/3 
f 150/6/9 155/6/9 154/5/4 148/5/4 
f 151/3/8 119/3/8 115/1/9 155/1/9 
f 156/4/3 116/4/3 119/3/8 151/3/8 
f 154/5/4 120/5/4 116/4/3 156/4/3 
f 155/6/9 115/6/9 120/5/4 154/5/4 
f 76/11/1 151/1/1 152/1/10 69/11/10 
f 73/11/7 153/1/7 151/1/1 76/11/1 
f 78/11/4 154/1/4 153/1/7 73/11/7 
f 69/11/10 152/1/10 154/1/4 78/11/4 
# 192 polygons

