# 3ds Max Wavefront OBJ Exporter v0.99 - (c)2007 guruware
# File Created: 20.05.2021 15:14:20

mtllib virus model.mtl

#
# object Cylinder004
#

v  56.8314 195.9998 0.0000
v  8.3882 174.6228 0.0000
v  8.3882 174.6228 37.3316
v  56.8314 195.9998 37.3316
v  7.8995 161.2253 0.0000
v  7.8995 161.2253 37.3316
v  37.8213 161.1163 0.0000
v  37.8213 161.1163 37.3316
v  22.7373 134.8844 0.0000
v  22.7373 134.8844 37.3316
v  34.6537 127.7226 0.0000
v  34.6537 127.7227 37.3316
v  77.1534 159.7494 0.0000
v  77.1534 159.7494 37.3316
v  135.8858 134.0976 0.0000
v  135.8858 134.0976 37.3316
v  153.1126 72.2541 -0.0000
v  153.1126 72.2542 37.3316
v  153.2416 149.0294 -0.0000
v  153.2416 149.0294 37.3316
v  88.2827 191.8329 -0.0000
v  88.2827 191.8329 37.3316
v  85.6919 267.7667 -0.0000
v  85.6919 267.7667 37.3316
v  18.8131 306.4411 -0.0000
v  18.8131 306.4411 37.3316
v  63.4703 261.4802 -0.0000
v  63.4703 261.4802 37.3316
v  58.9786 108.8111 -0.0000
v  59.5735 139.4780 0.0000
v  77.2485 153.4983 0.0000
v  77.4604 98.1711 -0.0000
v  77.2485 153.4983 37.4901
v  77.4604 98.1711 37.4901
v  59.5735 139.4780 37.4901
v  58.9787 108.8111 37.4901
v  4.8000 207.6129 0.0000
v  30.1828 191.5099 0.0000
v  30.1828 191.5099 37.4901
v  4.8000 207.6128 37.4901
v  4.5711 228.0309 0.0000
v  50.9067 200.4846 0.0000
v  4.5711 228.0308 37.4901
v  50.9067 200.4846 37.4901
v  -68.1829 160.0906 0.0000
v  -25.6776 128.0736 0.0000
v  -25.6776 128.0736 37.3316
v  -68.1830 160.0906 37.3316
v  -13.7586 135.2133 0.0000
v  -13.7586 135.2133 37.3316
v  -28.4534 160.3521 0.0000
v  -28.4534 160.3521 37.3316
v  0.5125 160.1751 0.0000
v  0.5125 160.1751 37.3316
v  0.5716 174.7383 0.0000
v  0.5717 174.7384 37.3316
v  -48.4070 196.0140 0.0000
v  -48.4070 196.0140 37.3316
v  -54.7460 261.3561 0.0000
v  -54.7460 261.3561 37.3316
v  -8.1517 307.8662 -0.0000
v  -8.1517 307.8662 37.3316
v  -76.7087 267.5989 -0.0000
v  -76.7087 267.5989 37.3316
v  -79.6503 191.0147 -0.0000
v  -79.6503 191.0147 37.3316
v  -144.4071 149.8801 -0.0000
v  -144.4071 149.8801 37.3316
v  -144.4511 71.8894 -0.0000
v  -144.4511 71.8894 37.3316
v  -127.7905 133.4821 -0.0000
v  -127.7905 133.4821 37.3316
v  -20.9430 192.0594 0.0000
v  -42.1088 200.5809 0.0000
v  -42.1088 200.5809 37.4901
v  -20.9430 192.0594 37.4901
v  -51.0792 109.2188 0.0000
v  -50.6817 139.2729 0.0000
v  -50.6817 139.2729 37.4901
v  -51.0792 109.2188 37.4901
v  -68.8470 99.4372 0.0000
v  -68.6583 152.9933 0.0000
v  -68.8469 99.4372 37.4901
v  -68.6583 152.9934 37.4901
v  24.7354 69.9007 0.0000
v  30.7402 121.8073 0.0000
v  30.7402 121.8073 37.3316
v  24.7354 69.9007 37.3316
v  18.7658 128.5716 0.0000
v  18.7658 128.5716 37.3316
v  4.0536 103.2877 0.0000
v  4.0536 103.2877 37.3316
v  -10.7167 129.1772 0.0000
v  -10.7167 129.1771 37.3316
v  -22.8318 122.9851 0.0000
v  -22.8318 122.9851 37.3316
v  -15.6919 69.5792 0.0000
v  -15.6919 69.5792 37.3316
v  -69.0263 29.6844 0.0000
v  -69.0263 29.6844 37.3316
v  -130.4334 46.2884 -0.0000
v  -130.4334 46.2883 37.3316
v  -62.8872 7.5889 -0.0000
v  -62.8872 7.5889 37.3316
v  4.6220 42.8944 -0.0000
v  4.6220 42.8944 37.3316
v  71.8777 7.3118 -0.0000
v  71.8777 7.3118 37.3316
v  136.9763 45.8766 -0.0000
v  136.9763 45.8766 37.3316
v  76.4708 29.5993 -0.0000
v  76.4708 29.5993 37.3316
v  -24.3147 93.7676 0.0000
v  -22.1809 71.5847 0.0000
v  -22.1809 71.5847 37.4901
v  -24.3147 93.7676 37.4901
v  33.2098 94.3863 0.0000
v  33.2098 94.3863 37.4901
v  30.9083 72.0475 0.0000
v  30.9083 72.0475 37.4901
# 120 vertices

vn -0.7416 0.5386 0.3999
vn -0.6591 0.4469 -0.6049
vn -0.6591 0.4469 0.6049
vn -0.4396 0.3192 0.8396
vn -0.5897 -0.5665 -0.5756
vn -0.5897 -0.5665 0.5756
vn -0.1603 -0.0924 -0.9827
vn -0.5239 -0.3018 0.7965
vn -0.7896 -0.2049 -0.5784
vn -0.7896 -0.2049 0.5784
vn 0.0418 -0.7987 -0.6003
vn 0.0418 -0.7987 0.6003
vn 0.0633 -0.5389 -0.8400
vn 0.0551 -0.4686 0.8817
vn -0.4347 -0.3777 -0.8176
vn -0.4347 -0.3777 0.8176
vn 0.0508 -0.3739 -0.9261
vn 0.0508 -0.3739 0.9261
vn 0.6951 0.3736 -0.6142
vn 0.6951 0.3736 0.6142
vn 0.4911 0.2755 -0.8264
vn 0.4911 0.2755 0.8264
vn 0.6778 0.4067 -0.6125
vn 0.6778 0.4066 0.6125
vn -0.0624 0.0482 0.9969
vn -0.0625 0.0481 -0.9969
vn -0.5435 -0.1926 -0.8170
vn -0.5435 -0.1926 0.8170
vn -0.4682 0.2807 -0.8379
vn -0.5706 0.0111 -0.8212
vn 0.8667 0.0033 -0.4988
vn 0.6853 -0.3995 -0.6088
vn 0.8667 0.0033 0.4988
vn 0.6853 -0.3995 0.6088
vn -0.5704 0.0111 0.8213
vn -0.4683 0.2806 0.8378
vn -0.0058 -0.5320 -0.8467
vn -0.3143 -0.4955 -0.8097
vn -0.3143 -0.4955 0.8097
vn -0.0058 -0.5320 0.8467
vn 0.0020 0.7935 -0.6085
vn 0.4378 0.7365 -0.5156
vn 0.0018 0.7935 0.6085
vn 0.4379 0.7366 0.5154
vn -0.0753 -0.6641 -0.7438
vn -0.0424 -0.7986 -0.6004
vn -0.0423 -0.7987 0.6003
vn -0.0609 -0.5376 0.8410
vn 0.7905 -0.2029 -0.5779
vn 0.7905 -0.2027 0.5780
vn 0.3003 -0.1735 -0.9379
vn 0.2078 -0.1202 0.9708
vn 0.5745 -0.5803 -0.5773
vn 0.5745 -0.5803 0.5773
vn 0.6687 0.4367 -0.6017
vn 0.6687 0.4367 0.6017
vn 0.4377 0.3184 -0.8408
vn 0.7686 0.5591 0.3108
vn 0.5427 -0.1949 -0.8170
vn 0.5427 -0.1949 0.8170
vn 0.0988 0.0763 0.9922
vn 0.0988 0.0762 -0.9922
vn -0.6778 0.4054 -0.6134
vn -0.6778 0.4054 0.6134
vn -0.4861 0.2794 -0.8280
vn -0.4861 0.2794 0.8280
vn -0.6922 0.3806 -0.6131
vn -0.6922 0.3806 0.6131
vn -0.0484 -0.3632 0.9304
vn -0.0484 -0.3632 -0.9304
vn 0.4377 -0.3743 -0.8175
vn 0.4376 -0.3743 0.8175
vn 0.2991 -0.4951 -0.8157
vn -0.4381 0.7449 -0.5031
vn -0.4381 0.7450 0.5030
vn 0.2991 -0.4951 0.8157
vn 0.4712 0.2679 -0.8404
vn 0.5794 -0.0077 -0.8150
vn 0.5794 -0.0077 0.8150
vn 0.4712 0.2680 0.8403
vn -0.6893 -0.3897 -0.6108
vn -0.8623 0.0030 -0.5064
vn -0.6893 -0.3897 0.6107
vn -0.8624 0.0030 0.5063
vn 0.3279 0.1374 -0.9347
vn 0.7121 0.3624 -0.6013
vn 0.7122 0.3623 0.6012
vn 0.5066 0.2124 0.8356
vn -0.2136 0.7876 -0.5780
vn -0.2136 0.7876 0.5780
vn 0.0043 0.9999 0.0146
vn 0.0024 0.6042 -0.7968
vn 0.2329 0.7808 -0.5798
vn 0.2330 0.7808 0.5798
vn -0.7104 0.3723 -0.5973
vn -0.7104 0.3722 0.5973
vn -0.4995 0.2099 -0.8405
vn -0.2577 0.1083 0.9601
vn -0.1076 0.5620 -0.8201
vn -0.1076 0.5620 0.8201
vn -0.0707 0.0292 -0.9971
vn -0.0707 0.0292 0.9971
vn -0.0152 -0.7897 -0.6133
vn -0.0152 -0.7897 0.6133
vn -0.0013 -0.5603 -0.8283
vn -0.0013 -0.5603 0.8283
vn 0.0191 -0.7908 -0.6118
vn 0.0190 -0.7907 0.6119
vn 0.1230 0.0517 -0.9911
vn 0.1229 0.0519 0.9911
vn 0.1127 0.5575 -0.8225
vn 0.1128 0.5575 0.8225
vn 0.2914 0.5047 -0.8126
vn -0.4402 -0.7375 -0.5122
vn -0.4402 -0.7375 0.5122
vn 0.2914 0.5048 0.8126
vn -0.2852 0.5095 -0.8118
vn -0.2852 0.5095 0.8118
vn 0.4180 -0.7448 -0.5202
vn 0.4180 -0.7448 0.5202
# 120 vertex normals

vt 0.2576 0.0200 0.0000
vt 0.2458 0.0200 0.0000
vt 0.2458 0.0974 0.0000
vt 0.2576 0.0974 0.0000
vt 0.2693 0.0200 0.0000
vt 0.2693 0.0974 0.0000
vt 0.3005 0.0200 0.0000
vt 0.3005 0.0974 0.0000
vt 0.3320 0.0200 0.0000
vt 0.3320 0.0974 0.0000
vt 0.3572 0.0200 0.0000
vt 0.3572 0.0974 0.0000
vt 0.3437 0.0200 0.0000
vt 0.3437 0.0974 0.0000
vt 0.4507 0.0200 0.0000
vt 0.4507 0.0974 0.0000
vt 0.5795 0.0200 0.0000
vt 0.5795 0.0974 0.0000
vt 0.4418 0.0200 0.0000
vt 0.4418 0.0974 0.0000
vt 0.2977 0.0200 0.0000
vt 0.2977 0.0974 0.0000
vt 0.1587 0.0200 0.0000
vt 0.1587 0.0974 0.0000
vt 0.0200 0.0200 0.0000
vt 0.0200 0.0974 0.0000
vt 0.1470 0.0200 0.0000
vt 0.1470 0.0974 0.0000
vt 0.2857 0.4462 0.0000
vt 0.2955 0.5362 0.0000
vt 0.2760 0.5484 0.0000
vt 0.2503 0.5042 0.0000
vt 0.2146 0.4471 0.0000
vt 0.0200 0.4094 0.0000
vt 0.1336 0.3435 0.0000
vt 0.1264 0.3820 0.0000
vt 0.2526 0.4031 0.0000
vt 0.3673 0.3420 0.0000
vt 0.3770 0.3803 0.0000
vt 0.4818 0.4080 0.0000
vt 0.2955 0.7858 0.0000
vt 0.2857 0.8759 0.0000
vt 0.2503 0.8179 0.0000
vt 0.2760 0.7736 0.0000
vt 0.2146 0.8750 0.0000
vt 0.2035 0.7846 0.0000
vt 0.2243 0.7731 0.0000
vt 0.4818 0.9140 0.0000
vt 0.3673 0.9800 0.0000
vt 0.3770 0.9417 0.0000
vt 0.2526 0.9189 0.0000
vt 0.1336 0.9785 0.0000
vt 0.0200 0.9127 0.0000
vt 0.1264 0.9400 0.0000
vt 0.8839 0.5439 0.0000
vt 0.9288 0.5710 0.0000
vt 0.9345 0.6092 0.0000
vt 0.8523 0.5622 0.0000
vt 0.1276 0.4560 0.0000
vt 0.1830 0.4560 0.0000
vt 0.1830 0.5316 0.0000
vt 0.1276 0.5316 0.0000
vt 0.8870 0.2503 0.0000
vt 0.9692 0.2033 0.0000
vt 0.9635 0.2415 0.0000
vt 0.9186 0.2686 0.0000
vt 0.6046 0.0398 0.0000
vt 0.6649 0.0398 0.0000
vt 0.6649 0.1246 0.0000
vt 0.6046 0.1246 0.0000
vt 0.8177 0.8127 0.0000
vt 0.8481 0.8127 0.0000
vt 0.8481 0.8847 0.0000
vt 0.8177 0.8847 0.0000
vt 0.1087 0.7089 0.0000
vt 0.1542 0.6851 0.0000
vt 0.1847 0.7022 0.0000
vt 0.1042 0.7473 0.0000
vt 0.0200 0.7731 0.0000
vt 0.1403 0.7731 0.0000
vt 0.1403 0.8689 0.0000
vt 0.0200 0.8689 0.0000
vt 0.2875 0.6740 0.0000
vt 0.3680 0.7191 0.0000
vt 0.3375 0.7362 0.0000
vt 0.2920 0.7124 0.0000
vt 0.2877 0.1240 0.0000
vt 0.2435 0.1240 0.0000
vt 0.2435 0.2034 0.0000
vt 0.2877 0.2034 0.0000
vt 0.2139 0.1240 0.0000
vt 0.2139 0.2034 0.0000
vt 0.2142 0.1240 0.0000
vt 0.2142 0.2034 0.0000
vt 0.1611 0.1240 0.0000
vt 0.1611 0.2034 0.0000
vt 0.1455 0.1240 0.0000
vt 0.1455 0.2034 0.0000
vt 0.2131 0.1240 0.0000
vt 0.2131 0.2034 0.0000
vt 0.1553 0.1240 0.0000
vt 0.1553 0.2034 0.0000
vt 0.0200 0.1240 0.0000
vt 0.0200 0.2034 0.0000
vt 0.1891 0.1240 0.0000
vt 0.1891 0.2034 0.0000
vt 0.2759 0.1240 0.0000
vt 0.2759 0.2034 0.0000
vt 0.4389 0.1240 0.0000
vt 0.4389 0.2034 0.0000
vt 0.5219 0.1240 0.0000
vt 0.5219 0.2034 0.0000
vt 0.4258 0.1240 0.0000
vt 0.4258 0.2034 0.0000
vt 0.7925 0.2552 0.0000
vt 0.7087 0.2196 0.0000
vt 0.7090 0.1958 0.0000
vt 0.7589 0.1961 0.0000
vt 0.8288 0.1951 0.0000
vt 0.9600 0.0398 0.0000
vt 0.9590 0.1758 0.0000
vt 0.9310 0.1486 0.0000
vt 0.8481 0.2457 0.0000
vt 0.8425 0.3768 0.0000
vt 0.8040 0.3662 0.0000
vt 0.7270 0.4436 0.0000
vt 0.7087 0.7048 0.0000
vt 0.7925 0.6692 0.0000
vt 0.7589 0.7283 0.0000
vt 0.7090 0.7285 0.0000
vt 0.8288 0.7292 0.0000
vt 0.7553 0.7836 0.0000
vt 0.7338 0.7710 0.0000
vt 0.7270 0.4808 0.0000
vt 0.8425 0.5475 0.0000
vt 0.8040 0.5581 0.0000
vt 0.8481 0.6787 0.0000
vt 0.9590 0.7485 0.0000
vt 0.9600 0.8845 0.0000
vt 0.9310 0.7757 0.0000
vt 0.1532 0.6336 0.0000
vt 0.1839 0.6096 0.0000
vt 0.1392 0.7731 0.0000
vt 0.1392 0.8689 0.0000
vt 0.3672 0.8117 0.0000
vt 0.3365 0.7876 0.0000
vt 0.6782 0.3123 0.0000
vt 0.7253 0.3123 0.0000
vt 0.7253 0.3807 0.0000
vt 0.6782 0.3807 0.0000
vt 0.6060 0.0398 0.0000
vt 0.6060 0.1246 0.0000
vt 0.9324 0.4377 0.0000
vt 0.8882 0.4114 0.0000
vt 0.8889 0.3767 0.0000
vt 0.9681 0.4228 0.0000
vt 0.7087 0.0398 0.0000
vt 0.7945 0.0398 0.0000
vt 0.7945 0.1093 0.0000
vt 0.7087 0.1093 0.0000
vt 0.1804 0.5899 0.0000
vt 0.1012 0.6360 0.0000
vt 0.1005 0.6013 0.0000
vt 0.1447 0.5750 0.0000
vt 0.3314 0.2330 0.0000
vt 0.3978 0.2330 0.0000
vt 0.3978 0.3126 0.0000
vt 0.3314 0.3126 0.0000
vt 0.3829 0.2330 0.0000
vt 0.3829 0.3126 0.0000
vt 0.3289 0.2330 0.0000
vt 0.3289 0.3126 0.0000
vt 0.3292 0.2330 0.0000
vt 0.3292 0.3126 0.0000
vt 0.3002 0.2330 0.0000
vt 0.3002 0.3126 0.0000
vt 0.2565 0.2330 0.0000
vt 0.2565 0.3126 0.0000
vt 0.1156 0.2330 0.0000
vt 0.1156 0.3126 0.0000
vt 0.0200 0.2330 0.0000
vt 0.0200 0.3126 0.0000
vt 0.1034 0.2330 0.0000
vt 0.1034 0.3126 0.0000
vt 0.2656 0.2330 0.0000
vt 0.2656 0.3126 0.0000
vt 0.3518 0.2330 0.0000
vt 0.3518 0.3126 0.0000
vt 0.5129 0.2330 0.0000
vt 0.5129 0.3126 0.0000
vt 0.3840 0.2330 0.0000
vt 0.3840 0.3126 0.0000
vt 0.4652 0.6860 0.0000
vt 0.5369 0.6327 0.0000
vt 0.5572 0.6446 0.0000
vt 0.5323 0.6880 0.0000
vt 0.4993 0.7461 0.0000
vt 0.5629 0.9360 0.0000
vt 0.4478 0.8691 0.0000
vt 0.4858 0.8593 0.0000
vt 0.4424 0.7388 0.0000
vt 0.3321 0.6696 0.0000
vt 0.3612 0.6438 0.0000
vt 0.3336 0.5402 0.0000
vt 0.6311 0.5315 0.0000
vt 0.5593 0.4782 0.0000
vt 0.6265 0.4761 0.0000
vt 0.6513 0.5195 0.0000
vt 0.5934 0.4180 0.0000
vt 0.6786 0.4531 0.0000
vt 0.6775 0.4764 0.0000
vt 0.4277 0.6239 0.0000
vt 0.4263 0.4945 0.0000
vt 0.4554 0.5203 0.0000
vt 0.5365 0.4253 0.0000
vt 0.5419 0.2951 0.0000
vt 0.6571 0.2281 0.0000
vt 0.5799 0.3049 0.0000
vt 0.8424 0.4378 0.0000
vt 0.8077 0.4220 0.0000
vt 0.8825 0.0398 0.0000
vt 0.8825 0.1093 0.0000
vt 0.0200 0.5907 0.0000
vt 0.0547 0.5749 0.0000
vt 0.9048 0.8127 0.0000
vt 0.9048 0.8847 0.0000
vt 0.6294 0.3123 0.0000
vt 0.6294 0.3807 0.0000
vt 0.8846 0.4934 0.0000
vt 0.8535 0.4708 0.0000
vt 0.0200 0.4560 0.0000
vt 0.0200 0.5316 0.0000
vt 0.8881 0.3416 0.0000
vt 0.9193 0.3191 0.0000
# 234 texture coords

o Cylinder004
g Cylinder004
usemtl wire_086086086
s off
f 1/1/1 2/2/2 3/3/3 4/4/4 
f 2/2/2 5/5/5 6/6/6 3/3/3 
f 5/5/5 7/7/7 8/8/8 6/6/6 
f 7/7/7 9/9/9 10/10/10 8/8/8 
f 9/9/9 11/11/11 12/12/12 10/10/10 
f 11/11/11 13/13/13 14/14/14 12/12/12 
f 13/13/13 15/15/15 16/16/16 14/14/14 
f 15/15/15 17/17/17 18/18/18 16/16/16 
f 17/17/17 19/19/19 20/20/20 18/18/18 
f 19/19/19 21/21/21 22/22/22 20/20/20 
f 21/21/21 23/23/23 24/24/24 22/22/22 
f 23/23/23 25/25/25 26/26/26 24/24/24 
f 25/25/25 27/27/27 28/28/28 26/26/26 
f 27/27/27 1/1/1 4/4/4 28/28/28 
f 12/12/12 14/14/14 8/8/8 10/10/10 
f 4/29/4 3/30/3 6/31/6 8/32/8 
f 4/29/4 8/32/8 8/32/8 14/33/14 
f 18/34/18 20/35/20 16/36/16 18/34/18 
f 20/35/20 22/37/22 14/33/14 16/36/16 
f 22/37/22 24/38/24 28/39/28 4/29/4 
f 24/38/24 26/40/26 26/40/26 28/39/28 
f 14/33/14 22/37/22 4/29/4 14/33/14 
f 2/41/2 1/42/1 7/43/7 5/44/5 
f 13/45/13 11/46/11 9/47/9 7/43/7 
f 13/45/13 7/43/7 7/43/7 1/42/1 
f 25/48/25 23/49/23 27/50/27 25/48/25 
f 23/49/23 21/51/21 1/42/1 27/50/27 
f 19/52/19 17/53/17 17/53/17 15/54/15 
f 21/51/21 19/52/19 15/54/15 13/45/13 
f 1/42/1 21/51/21 13/45/13 1/42/1 
f 29/55/29 30/56/30 31/57/31 32/58/32 
f 32/59/32 31/60/31 33/61/33 34/62/34 
f 34/63/34 33/64/33 35/65/35 36/66/36 
f 37/67/37 38/68/38 39/69/39 40/70/40 
f 30/71/30 29/72/29 36/73/36 35/74/35 
f 38/75/38 37/76/37 41/77/41 42/78/42 
f 42/79/42 41/80/41 43/81/43 44/82/44 
f 44/83/44 43/84/43 40/85/40 39/86/39 
f 45/87/45 46/88/46 47/89/47 48/90/48 
f 46/88/46 49/91/49 50/92/50 47/89/47 
f 49/91/49 51/93/51 52/94/52 50/92/50 
f 51/93/51 53/95/53 54/96/54 52/94/52 
f 53/95/53 55/97/55 56/98/56 54/96/54 
f 55/97/55 57/99/57 58/100/58 56/98/56 
f 57/99/57 59/101/59 60/102/60 58/100/58 
f 59/101/59 61/103/61 62/104/62 60/102/60 
f 61/103/61 63/105/63 64/106/64 62/104/62 
f 63/105/63 65/107/65 66/108/66 64/106/64 
f 65/107/65 67/109/67 68/110/68 66/108/66 
f 67/109/67 69/111/69 70/112/70 68/110/68 
f 69/111/69 71/113/71 72/114/72 70/112/70 
f 71/113/71 45/87/45 48/90/48 72/114/72 
f 56/98/56 58/100/58 52/94/52 54/96/54 
f 48/115/48 47/116/47 50/117/50 52/118/52 
f 48/115/48 52/118/52 52/118/52 58/119/58 
f 62/120/62 64/121/64 60/122/60 62/120/62 
f 64/121/64 66/123/66 58/119/58 60/122/60 
f 66/123/66 68/124/68 72/125/72 48/115/48 
f 68/124/68 70/126/70 70/126/70 72/125/72 
f 58/119/58 66/123/66 48/115/48 58/119/58 
f 46/127/46 45/128/45 51/129/51 49/130/49 
f 57/131/57 55/132/55 53/133/53 51/129/51 
f 57/131/57 51/129/51 51/129/51 45/128/45 
f 69/134/69 67/135/67 71/136/71 69/134/69 
f 67/135/67 65/137/65 45/128/45 71/136/71 
f 63/138/63 61/139/61 61/139/61 59/140/59 
f 65/137/65 63/138/63 59/140/59 57/131/57 
f 45/128/45 65/137/65 57/131/57 45/128/45 
f 37/76/37 73/141/73 74/142/74 41/77/41 
f 41/80/41 74/143/74 75/144/75 43/81/43 
f 43/84/43 75/145/75 76/146/76 40/85/40 
f 77/147/77 78/148/78 79/149/79 80/150/80 
f 73/151/73 37/67/37 40/70/40 76/152/76 
f 78/153/78 77/154/77 81/155/81 82/156/82 
f 82/157/82 81/158/81 83/159/83 84/160/84 
f 84/161/84 83/162/83 80/163/80 79/164/79 
f 85/165/85 86/166/86 87/167/87 88/168/88 
f 86/166/86 89/169/89 90/170/90 87/167/87 
f 89/169/89 91/171/91 92/172/92 90/170/90 
f 91/171/91 93/173/93 94/174/94 92/172/92 
f 93/173/93 95/175/95 96/176/96 94/174/94 
f 95/175/95 97/177/97 98/178/98 96/176/96 
f 97/177/97 99/179/99 100/180/100 98/178/98 
f 99/179/99 101/181/101 102/182/102 100/180/100 
f 101/181/101 103/183/103 104/184/104 102/182/102 
f 103/183/103 105/185/105 106/186/106 104/184/104 
f 105/185/105 107/187/107 108/188/108 106/186/106 
f 107/187/107 109/189/109 110/190/110 108/188/108 
f 109/189/109 111/191/111 112/192/112 110/190/110 
f 111/191/111 85/165/85 88/168/88 112/192/112 
f 96/176/96 98/178/98 92/172/92 94/174/94 
f 88/193/88 87/194/87 90/195/90 92/196/92 
f 88/193/88 92/196/92 92/196/92 98/197/98 
f 102/198/102 104/199/104 100/200/100 102/198/102 
f 104/199/104 106/201/106 98/197/98 100/200/100 
f 106/201/106 108/202/108 112/203/112 88/193/88 
f 108/202/108 110/204/110 110/204/110 112/203/112 
f 98/197/98 106/201/106 88/193/88 98/197/98 
f 86/205/86 85/206/85 91/207/91 89/208/89 
f 97/209/97 95/210/95 93/211/93 91/207/91 
f 97/209/97 91/207/91 91/207/91 85/206/85 
f 109/212/109 107/213/107 111/214/111 109/212/109 
f 107/213/107 105/215/105 85/206/85 111/214/111 
f 103/216/103 101/217/101 101/217/101 99/218/99 
f 105/215/105 103/216/103 99/218/99 97/209/97 
f 85/206/85 105/215/105 97/209/97 85/206/85 
f 77/154/77 113/219/113 114/220/114 81/155/81 
f 81/158/81 114/221/114 115/222/115 83/159/83 
f 83/162/83 115/223/115 116/224/116 80/163/80 
f 29/72/29 117/225/117 118/226/118 36/73/36 
f 113/227/113 77/147/77 80/150/80 116/228/116 
f 117/229/117 29/55/29 32/58/32 119/230/119 
f 119/231/119 32/59/32 34/62/34 120/232/120 
f 120/233/120 34/63/34 36/66/36 118/234/118 
# 114 polygons

