# 3ds Max Wavefront OBJ Exporter v0.99 - (c)2007 guruware
# File Created: 21.05.2021 10:34:58

mtllib Wall - chain.mtl

#
# object Box001
#

v  -83.7231 5.0000 1.8466
v  -78.7231 0.0000 1.8466
v  -83.7231 0.0000 -3.1534
v  -88.7231 0.0000 1.8466
v  -83.7231 0.0000 6.8466
v  -83.7231 -5.0000 1.8466
v  -17.0564 5.0000 1.8466
v  -12.0564 0.0000 1.8466
v  -17.0564 0.0000 -3.1534
v  -22.0564 0.0000 1.8466
v  -17.0564 0.0000 6.8466
v  -17.0564 -5.0000 1.8466
v  49.6102 5.0000 1.8466
v  54.6102 0.0000 1.8466
v  49.6102 0.0000 -3.1534
v  44.6102 0.0000 1.8466
v  49.6102 0.0000 6.8466
v  49.6102 -5.0000 1.8466
v  -83.7231 5.0000 -18.1534
v  -78.7231 0.0000 -18.1534
v  -83.7231 0.0000 -23.1534
v  -88.7231 0.0000 -18.1534
v  -83.7231 0.0000 -13.1534
v  -83.7231 -5.0000 -18.1534
v  -17.0564 5.0000 -18.1534
v  -12.0564 0.0000 -18.1534
v  -17.0564 0.0000 -23.1534
v  -22.0564 0.0000 -18.1534
v  -17.0564 0.0000 -13.1534
v  -17.0564 -5.0000 -18.1534
v  49.6102 5.0000 -18.1534
v  54.6102 0.0000 -18.1534
v  49.6102 0.0000 -23.1534
v  44.6102 0.0000 -18.1534
v  49.6102 0.0000 -13.1534
v  49.6102 -5.0000 -18.1534
v  -83.7231 205.0000 1.8466
v  -78.7231 200.0000 1.8466
v  -83.7231 200.0000 -3.1534
v  -88.7231 200.0000 1.8466
v  -83.7231 200.0000 6.8466
v  -83.7231 195.0000 1.8466
v  -17.0564 205.0000 1.8466
v  -12.0564 200.0000 1.8466
v  -17.0564 200.0000 -3.1534
v  -22.0564 200.0000 1.8466
v  -17.0564 200.0000 6.8466
v  -17.0564 195.0000 1.8466
v  49.6102 205.0000 1.8466
v  54.6102 200.0000 1.8466
v  49.6102 200.0000 -3.1534
v  44.6102 200.0000 1.8466
v  49.6102 200.0000 6.8466
v  49.6102 195.0000 1.8466
v  -83.7231 205.0000 -18.1534
v  -78.7231 200.0000 -18.1534
v  -83.7231 200.0000 -23.1534
v  -88.7231 200.0000 -18.1534
v  -83.7231 200.0000 -13.1534
v  -83.7231 195.0000 -18.1534
v  -17.0564 205.0000 -18.1534
v  -12.0564 200.0000 -18.1534
v  -17.0564 200.0000 -23.1534
v  -22.0564 200.0000 -18.1534
v  -17.0564 200.0000 -13.1534
v  -17.0564 195.0000 -18.1534
v  49.6102 205.0000 -18.1534
v  54.6102 200.0000 -18.1534
v  49.6102 200.0000 -23.1534
v  44.6102 200.0000 -18.1534
v  49.6102 200.0000 -13.1534
v  49.6102 195.0000 -18.1534
v  -81.7231 0.0000 -18.1534
v  -81.7231 0.0000 1.8466
v  -83.7231 -2.0000 1.8466
v  -83.7231 -2.0000 -18.1534
v  -83.7231 2.0000 -18.1534
v  -83.7231 2.0000 1.8466
v  -85.7231 0.0000 -18.1534
v  -85.7231 0.0000 1.8466
v  -17.0564 0.0000 -20.1534
v  -83.7231 0.0000 -20.1534
v  -17.0564 2.0000 -18.1534
v  -17.0564 -2.0000 -18.1534
v  -17.0564 0.0000 -16.1534
v  -83.7231 0.0000 -16.1534
v  -15.0564 0.0000 1.8466
v  -15.0564 0.0000 -18.1534
v  -17.0564 2.0000 1.8466
v  -17.0564 -2.0000 1.8466
v  -19.0564 0.0000 1.8466
v  -19.0564 0.0000 -18.1534
v  -83.7231 0.0000 -0.1534
v  -17.0564 0.0000 -0.1534
v  -83.7231 0.0000 3.8466
v  -17.0564 0.0000 3.8466
v  49.6102 0.0000 -20.1534
v  49.6102 2.0000 -18.1534
v  49.6102 -2.0000 -18.1534
v  49.6102 0.0000 -16.1534
v  51.6102 0.0000 1.8466
v  51.6102 0.0000 -18.1534
v  49.6102 2.0000 1.8466
v  49.6102 -2.0000 1.8466
v  47.6102 0.0000 1.8466
v  47.6102 0.0000 -18.1534
v  49.6102 0.0000 -0.1534
v  49.6102 0.0000 3.8466
v  116.2769 0.0000 -20.1534
v  116.2769 2.0000 -18.1534
v  116.2769 -2.0000 -18.1534
v  116.2769 0.0000 -16.1534
v  116.2769 0.0000 -0.1534
v  116.2769 -2.0000 1.8466
v  116.2769 2.0000 1.8466
v  116.2769 0.0000 3.8466
v  -17.0564 200.0000 -0.1534
v  -83.7231 200.0000 -0.1534
v  -83.7231 202.0000 1.8466
v  -17.0564 202.0000 1.8466
v  -17.0564 198.0000 1.8466
v  -83.7231 198.0000 1.8466
v  -17.0564 200.0000 3.8466
v  -83.7231 200.0000 3.8466
v  -15.0564 200.0000 -18.1534
v  -15.0564 200.0000 1.8466
v  -17.0564 198.0000 -18.1534
v  -17.0564 202.0000 -18.1534
v  -19.0564 200.0000 -18.1534
v  -19.0564 200.0000 1.8466
v  -83.7231 200.0000 -20.1534
v  -17.0564 200.0000 -20.1534
v  -83.7231 198.0000 -18.1534
v  -83.7231 202.0000 -18.1534
v  -83.7231 200.0000 -16.1534
v  -17.0564 200.0000 -16.1534
v  -81.7231 200.0000 1.8466
v  -81.7231 200.0000 -18.1534
v  -85.7231 200.0000 1.8466
v  -85.7231 200.0000 -18.1534
v  49.6102 200.0000 -0.1534
v  49.6102 202.0000 1.8466
v  49.6102 198.0000 1.8466
v  49.6102 200.0000 3.8466
v  51.6102 200.0000 -18.1534
v  51.6102 200.0000 1.8466
v  49.6102 198.0000 -18.1534
v  49.6102 202.0000 -18.1534
v  47.6102 200.0000 -18.1534
v  47.6102 200.0000 1.8466
v  49.6102 200.0000 -20.1534
v  49.6102 200.0000 -16.1534
v  116.2769 200.0000 -0.1534
v  116.2769 202.0000 1.8466
v  116.2769 198.0000 1.8466
v  116.2769 200.0000 3.8466
v  116.2769 200.0000 -20.1534
v  116.2769 198.0000 -18.1534
v  116.2769 202.0000 -18.1534
v  116.2769 200.0000 -16.1534
# 160 vertices

vn 0.0000 1.0000 -0.0000
vn 1.0000 0.0000 -0.0000
vn 0.0000 0.0000 -1.0000
vn -1.0000 0.0000 -0.0000
vn 0.0000 0.0000 1.0000
vn 0.0000 -1.0000 -0.0000
vn 0.0000 -0.0001 -1.0000
vn 0.0000 -1.0000 -0.0001
vn 1.0000 0.0001 -0.0000
vn 0.0001 1.0000 -0.0000
vn -0.0001 -1.0000 -0.0000
vn -1.0000 -0.0001 -0.0000
vn 0.0000 1.0000 0.0001
vn 0.0000 0.0001 1.0000
vn -0.0001 1.0000 -0.0000
vn 1.0000 -0.0001 -0.0000
vn -0.0000 1.0000 -0.0000
vn -0.0001 0.0000 -1.0000
vn -0.0001 0.0000 1.0000
vn 1.0000 0.0000 -0.0001
vn 0.0001 0.0000 -1.0000
vn -1.0000 0.0000 0.0001
# 22 vertex normals

vt 0.8809 0.5771 0.0000
vt 0.8569 0.6011 0.0000
vt 0.8569 0.5771 0.0000
vt 0.9131 0.9594 0.0000
vt 0.9113 0.9255 0.0000
vt 0.9292 0.9415 0.0000
vt 0.9470 0.9576 0.0000
vt 0.8412 0.6622 0.0000
vt 0.8412 0.6382 0.0000
vt 0.8652 0.6382 0.0000
vt 0.8329 0.5771 0.0000
vt 0.9452 0.9237 0.0000
vt 0.8412 0.6142 0.0000
vt 0.8673 0.9415 0.0000
vt 0.8851 0.9576 0.0000
vt 0.8512 0.9594 0.0000
vt 0.8494 0.9255 0.0000
vt 0.8833 0.9237 0.0000
vt 0.8054 0.8879 0.0000
vt 0.8214 0.8701 0.0000
vt 0.8232 0.9039 0.0000
vt 0.7875 0.8718 0.0000
vt 0.7893 0.9057 0.0000
vt 0.7274 0.9057 0.0000
vt 0.7435 0.8879 0.0000
vt 0.7613 0.9039 0.0000
vt 0.8512 0.9057 0.0000
vt 0.8494 0.8718 0.0000
vt 0.8673 0.8879 0.0000
vt 0.8851 0.9039 0.0000
vt 0.7256 0.8718 0.0000
vt 0.7595 0.8701 0.0000
vt 0.8833 0.8701 0.0000
vt 0.9292 0.8879 0.0000
vt 0.9470 0.9039 0.0000
vt 0.9131 0.9057 0.0000
vt 0.9113 0.8718 0.0000
vt 0.9452 0.8701 0.0000
vt 0.6981 0.7806 0.0000
vt 0.7141 0.7628 0.0000
vt 0.7159 0.7967 0.0000
vt 0.6803 0.7646 0.0000
vt 0.6820 0.7984 0.0000
vt 0.6655 0.9057 0.0000
vt 0.6816 0.8879 0.0000
vt 0.6994 0.9039 0.0000
vt 0.6655 0.9594 0.0000
vt 0.6637 0.9255 0.0000
vt 0.6816 0.9415 0.0000
vt 0.6994 0.9576 0.0000
vt 0.6637 0.8718 0.0000
vt 0.6976 0.8701 0.0000
vt 0.6976 0.9237 0.0000
vt 0.8223 0.7407 0.0000
vt 0.8206 0.7068 0.0000
vt 0.8384 0.7228 0.0000
vt 0.8562 0.7389 0.0000
vt 0.6531 0.7242 0.0000
vt 0.6514 0.6903 0.0000
vt 0.6692 0.7063 0.0000
vt 0.6870 0.7224 0.0000
vt 0.8544 0.7050 0.0000
vt 0.6852 0.6885 0.0000
vt 0.8677 0.7984 0.0000
vt 0.8838 0.7806 0.0000
vt 0.9016 0.7967 0.0000
vt 0.8842 0.7448 0.0000
vt 0.8825 0.7109 0.0000
vt 0.9003 0.7270 0.0000
vt 0.9181 0.7430 0.0000
vt 0.8659 0.7646 0.0000
vt 0.8998 0.7628 0.0000
vt 0.9163 0.7091 0.0000
vt 0.9296 0.7984 0.0000
vt 0.9278 0.7646 0.0000
vt 0.9457 0.7806 0.0000
vt 0.9635 0.7967 0.0000
vt 0.7439 0.7984 0.0000
vt 0.7421 0.7646 0.0000
vt 0.7600 0.7806 0.0000
vt 0.7778 0.7967 0.0000
vt 0.9617 0.7628 0.0000
vt 0.7760 0.7628 0.0000
vt 0.6197 0.8879 0.0000
vt 0.6375 0.9039 0.0000
vt 0.6036 0.9057 0.0000
vt 0.6018 0.8718 0.0000
vt 0.6357 0.8701 0.0000
vt 0.9539 0.4298 0.0000
vt 0.9700 0.4120 0.0000
vt 0.9717 0.4459 0.0000
vt 0.9361 0.4138 0.0000
vt 0.9379 0.4477 0.0000
vt 0.7687 0.7448 0.0000
vt 0.7669 0.7109 0.0000
vt 0.7847 0.7270 0.0000
vt 0.8026 0.7430 0.0000
vt 0.8760 0.6911 0.0000
vt 0.8742 0.6573 0.0000
vt 0.8920 0.6733 0.0000
vt 0.9098 0.6894 0.0000
vt 0.8008 0.7091 0.0000
vt 0.9081 0.6555 0.0000
vt 0.8219 0.7806 0.0000
vt 0.8397 0.7967 0.0000
vt 0.8058 0.7984 0.0000
vt 0.8040 0.7646 0.0000
vt 0.8379 0.7628 0.0000
vt 0.9580 0.4835 0.0000
vt 0.9741 0.4657 0.0000
vt 0.9759 0.4995 0.0000
vt 0.9402 0.4674 0.0000
vt 0.9420 0.5013 0.0000
vt 0.6201 0.7778 0.0000
vt 0.6362 0.7600 0.0000
vt 0.6540 0.7760 0.0000
vt 0.9420 0.5550 0.0000
vt 0.9402 0.5211 0.0000
vt 0.9580 0.5371 0.0000
vt 0.9759 0.5532 0.0000
vt 0.6184 0.7439 0.0000
vt 0.6522 0.7421 0.0000
vt 0.9741 0.5193 0.0000
vt 0.8740 0.5540 0.0000
vt 0.8740 0.4739 0.0000
vt 0.8820 0.4739 0.0000
vt 0.8820 0.5540 0.0000
vt 0.8659 0.5540 0.0000
vt 0.8659 0.4739 0.0000
vt 0.7174 0.5540 0.0000
vt 0.7174 0.4739 0.0000
vt 0.7254 0.4739 0.0000
vt 0.7254 0.5540 0.0000
vt 0.8492 0.4739 0.0000
vt 0.8492 0.5540 0.0000
vt 0.8412 0.5540 0.0000
vt 0.8412 0.4739 0.0000
vt 0.9113 0.2805 0.0000
vt 0.9113 0.0200 0.0000
vt 0.9192 0.0200 0.0000
vt 0.9192 0.2805 0.0000
vt 0.5812 0.2805 0.0000
vt 0.5812 0.0200 0.0000
vt 0.5890 0.0200 0.0000
vt 0.5890 0.2805 0.0000
vt 0.2928 0.8696 0.0000
vt 0.0324 0.8696 0.0000
vt 0.0324 0.8618 0.0000
vt 0.2928 0.8618 0.0000
vt 0.2928 0.8774 0.0000
vt 0.0324 0.8774 0.0000
vt 0.7912 0.4739 0.0000
vt 0.7912 0.5540 0.0000
vt 0.7832 0.5540 0.0000
vt 0.7832 0.4739 0.0000
vt 0.9070 0.3047 0.0000
vt 0.9070 0.3848 0.0000
vt 0.8990 0.3848 0.0000
vt 0.8990 0.3047 0.0000
vt 0.9691 0.1001 0.0000
vt 0.9691 0.0200 0.0000
vt 0.9771 0.0200 0.0000
vt 0.9771 0.1001 0.0000
vt 0.7752 0.5540 0.0000
vt 0.7752 0.4739 0.0000
vt 0.8861 0.2805 0.0000
vt 0.8861 0.0200 0.0000
vt 0.8940 0.0200 0.0000
vt 0.8940 0.2805 0.0000
vt 0.8783 0.2805 0.0000
vt 0.8783 0.0200 0.0000
vt 0.0324 0.9026 0.0000
vt 0.2928 0.9026 0.0000
vt 0.2928 0.9105 0.0000
vt 0.0324 0.9105 0.0000
vt 0.0324 0.8948 0.0000
vt 0.2928 0.8948 0.0000
vt 0.6968 0.2805 0.0000
vt 0.6968 0.0200 0.0000
vt 0.7046 0.0200 0.0000
vt 0.7046 0.2805 0.0000
vt 0.8788 0.3827 0.0000
vt 0.6184 0.3827 0.0000
vt 0.6184 0.3749 0.0000
vt 0.8788 0.3749 0.0000
vt 0.8284 0.2805 0.0000
vt 0.8284 0.0200 0.0000
vt 0.8362 0.0200 0.0000
vt 0.8362 0.2805 0.0000
vt 0.8206 0.2805 0.0000
vt 0.8206 0.0200 0.0000
vt 0.7582 0.4739 0.0000
vt 0.7582 0.5540 0.0000
vt 0.7502 0.5540 0.0000
vt 0.7502 0.4739 0.0000
vt 0.8162 0.5540 0.0000
vt 0.8162 0.4739 0.0000
vt 0.8242 0.4739 0.0000
vt 0.8242 0.5540 0.0000
vt 0.8082 0.5540 0.0000
vt 0.8082 0.4739 0.0000
vt 0.7421 0.5540 0.0000
vt 0.7421 0.4739 0.0000
vt 0.7623 0.2805 0.0000
vt 0.7623 0.0200 0.0000
vt 0.7702 0.0200 0.0000
vt 0.7702 0.2805 0.0000
vt 0.7545 0.2805 0.0000
vt 0.7545 0.0200 0.0000
vt 0.7954 0.0200 0.0000
vt 0.7954 0.2805 0.0000
vt 0.7875 0.2805 0.0000
vt 0.7875 0.0200 0.0000
vt 0.8032 0.0200 0.0000
vt 0.8032 0.2805 0.0000
vt 0.2928 0.9604 0.0000
vt 0.0324 0.9604 0.0000
vt 0.0324 0.9526 0.0000
vt 0.2928 0.9526 0.0000
vt 0.2928 0.8449 0.0000
vt 0.0324 0.8449 0.0000
vt 0.0324 0.8371 0.0000
vt 0.2928 0.8371 0.0000
vt 0.6138 0.2805 0.0000
vt 0.6138 0.0200 0.0000
vt 0.6216 0.0200 0.0000
vt 0.6216 0.2805 0.0000
vt 0.6060 0.2805 0.0000
vt 0.6060 0.0200 0.0000
vt 0.7293 0.2805 0.0000
vt 0.7293 0.0200 0.0000
vt 0.7371 0.0200 0.0000
vt 0.7371 0.2805 0.0000
vt 0.7215 0.2805 0.0000
vt 0.7215 0.0200 0.0000
vt 0.3171 0.8407 0.0000
vt 0.5776 0.8407 0.0000
vt 0.5776 0.8486 0.0000
vt 0.3171 0.8486 0.0000
vt 0.3171 0.8329 0.0000
vt 0.5776 0.8329 0.0000
vt 0.5895 0.3084 0.0000
vt 0.8499 0.3084 0.0000
vt 0.8499 0.3162 0.0000
vt 0.5895 0.3162 0.0000
vt 0.5895 0.3006 0.0000
vt 0.8499 0.3006 0.0000
vt 0.8788 0.4157 0.0000
vt 0.6184 0.4157 0.0000
vt 0.6184 0.4079 0.0000
vt 0.8788 0.4079 0.0000
vt 0.2928 0.9357 0.0000
vt 0.0324 0.9357 0.0000
vt 0.0324 0.9278 0.0000
vt 0.2928 0.9278 0.0000
vt 0.6924 0.6613 0.0000
vt 0.6924 0.5812 0.0000
vt 0.7004 0.5812 0.0000
vt 0.7004 0.6613 0.0000
vt 0.6844 0.6613 0.0000
vt 0.6844 0.5812 0.0000
vt 0.7749 0.6018 0.0000
vt 0.7749 0.6820 0.0000
vt 0.7669 0.6820 0.0000
vt 0.7669 0.6018 0.0000
vt 0.7829 0.6018 0.0000
vt 0.7829 0.6820 0.0000
vt 0.6010 0.3749 0.0000
vt 0.6010 0.6353 0.0000
vt 0.5932 0.6353 0.0000
vt 0.5932 0.3749 0.0000
vt 0.6716 0.0200 0.0000
vt 0.6716 0.2805 0.0000
vt 0.6637 0.2805 0.0000
vt 0.6637 0.0200 0.0000
vt 0.6794 0.0200 0.0000
vt 0.6794 0.2805 0.0000
vt 0.5853 0.6353 0.0000
vt 0.5853 0.3749 0.0000
vt 0.6594 0.4739 0.0000
vt 0.6594 0.5540 0.0000
vt 0.6514 0.5540 0.0000
vt 0.6514 0.4739 0.0000
vt 0.6674 0.4739 0.0000
vt 0.6674 0.5540 0.0000
vt 0.7337 0.6820 0.0000
vt 0.7337 0.6018 0.0000
vt 0.7417 0.6018 0.0000
vt 0.7417 0.6820 0.0000
vt 0.7256 0.6820 0.0000
vt 0.7256 0.6018 0.0000
vt 0.5776 0.9600 0.0000
vt 0.3171 0.9600 0.0000
vt 0.3171 0.9522 0.0000
vt 0.5776 0.9522 0.0000
vt 0.8499 0.3414 0.0000
vt 0.5895 0.3414 0.0000
vt 0.5895 0.3336 0.0000
vt 0.8499 0.3336 0.0000
vt 0.8499 0.3492 0.0000
vt 0.5895 0.3492 0.0000
vt 0.3171 0.9444 0.0000
vt 0.5776 0.9444 0.0000
vt 0.6594 0.6613 0.0000
vt 0.6594 0.5812 0.0000
vt 0.6674 0.5812 0.0000
vt 0.6674 0.6613 0.0000
vt 0.6514 0.6613 0.0000
vt 0.6514 0.5812 0.0000
vt 0.9400 0.3047 0.0000
vt 0.9400 0.3848 0.0000
vt 0.9320 0.3848 0.0000
vt 0.9320 0.3047 0.0000
vt 0.9480 0.3047 0.0000
vt 0.9480 0.3848 0.0000
vt 0.3171 0.8701 0.0000
vt 0.5776 0.8701 0.0000
vt 0.5776 0.8779 0.0000
vt 0.3171 0.8779 0.0000
vt 0.2928 0.8201 0.0000
vt 0.0324 0.8201 0.0000
vt 0.0324 0.8123 0.0000
vt 0.2928 0.8123 0.0000
vt 0.8614 0.0200 0.0000
vt 0.8614 0.2805 0.0000
vt 0.8536 0.2805 0.0000
vt 0.8536 0.0200 0.0000
vt 0.5776 0.8857 0.0000
vt 0.3171 0.8857 0.0000
vt 0.3171 0.9150 0.0000
vt 0.5776 0.9150 0.0000
vt 0.5776 0.9228 0.0000
vt 0.3171 0.9228 0.0000
vt 0.3171 0.9072 0.0000
vt 0.5776 0.9072 0.0000
vt 0.6390 0.2805 0.0000
vt 0.6390 0.0200 0.0000
vt 0.6468 0.0200 0.0000
vt 0.6468 0.2805 0.0000
vt 0.9118 0.4487 0.0000
vt 0.6514 0.4487 0.0000
vt 0.6514 0.4409 0.0000
vt 0.9118 0.4409 0.0000
vt 0.6340 0.4409 0.0000
vt 0.6340 0.7014 0.0000
vt 0.6262 0.7014 0.0000
vt 0.6262 0.4409 0.0000
vt 0.9439 0.0200 0.0000
vt 0.9439 0.2805 0.0000
vt 0.9361 0.2805 0.0000
vt 0.9361 0.0200 0.0000
vt 0.9517 0.0200 0.0000
vt 0.9517 0.2805 0.0000
vt 0.6184 0.7014 0.0000
vt 0.6184 0.4409 0.0000
vt 0.3249 0.7952 0.0000
vt 0.3249 0.0200 0.0000
vt 0.3326 0.0200 0.0000
vt 0.3326 0.7952 0.0000
vt 0.3171 0.7952 0.0000
vt 0.3171 0.0200 0.0000
vt 0.1768 0.7952 0.0000
vt 0.1768 0.0200 0.0000
vt 0.1846 0.0200 0.0000
vt 0.1846 0.7952 0.0000
vt 0.2924 0.7952 0.0000
vt 0.2924 0.0200 0.0000
vt 0.3001 0.0200 0.0000
vt 0.3001 0.7952 0.0000
vt 0.4162 0.7952 0.0000
vt 0.4162 0.0200 0.0000
vt 0.4239 0.0200 0.0000
vt 0.4239 0.7952 0.0000
vt 0.3909 0.7952 0.0000
vt 0.3909 0.0200 0.0000
vt 0.3986 0.0200 0.0000
vt 0.3986 0.7952 0.0000
vt 0.3831 0.7952 0.0000
vt 0.3831 0.0200 0.0000
vt 0.4317 0.0200 0.0000
vt 0.4317 0.7952 0.0000
vt 0.2016 0.7952 0.0000
vt 0.2016 0.0200 0.0000
vt 0.2093 0.0200 0.0000
vt 0.2093 0.7952 0.0000
vt 0.0525 0.7952 0.0000
vt 0.0525 0.0200 0.0000
vt 0.0603 0.0200 0.0000
vt 0.0603 0.7952 0.0000
vt 0.0448 0.7952 0.0000
vt 0.0448 0.0200 0.0000
vt 0.2171 0.0200 0.0000
vt 0.2171 0.7952 0.0000
vt 0.1438 0.7952 0.0000
vt 0.1438 0.0200 0.0000
vt 0.1515 0.0200 0.0000
vt 0.1515 0.7952 0.0000
vt 0.0200 0.7952 0.0000
vt 0.0200 0.0200 0.0000
vt 0.0278 0.0200 0.0000
vt 0.0278 0.7952 0.0000
vt 0.2346 0.7952 0.0000
vt 0.2346 0.0200 0.0000
vt 0.2423 0.0200 0.0000
vt 0.2423 0.7952 0.0000
vt 0.1593 0.0200 0.0000
vt 0.1593 0.7952 0.0000
# 407 texture coords

o Box001
g Box001
usemtl wire_086086086
s off
f 1/1/1 2/2/2 3/3/3 
f 1/4/1 3/5/3 4/6/4 
f 1/4/1 4/6/4 5/7/5 
f 1/8/1 5/9/5 2/10/2 
f 6/11/6 3/3/3 2/2/2 
f 6/12/6 4/6/4 3/5/3 
f 6/12/6 5/7/5 4/6/4 
f 6/13/6 2/10/2 5/9/5 
f 7/14/1 8/15/2 9/16/3 
f 7/14/1 9/16/3 10/17/4 
f 7/14/1 10/17/4 11/18/5 
f 7/14/1 11/18/5 8/15/2 
f 12/19/6 9/20/3 8/21/2 
f 12/19/6 10/22/4 9/20/3 
f 12/19/6 11/23/5 10/22/4 
f 12/19/6 8/21/2 11/23/5 
f 13/24/1 14/25/2 15/26/3 
f 13/27/1 15/28/3 16/29/4 
f 13/27/1 16/29/4 17/30/5 
f 13/24/1 17/31/5 14/25/2 
f 18/32/6 15/26/3 14/25/2 
f 18/33/6 16/29/4 15/28/3 
f 18/33/6 17/30/5 16/29/4 
f 18/32/6 14/25/2 17/31/5 
f 19/34/1 20/35/2 21/36/3 
f 19/34/1 21/36/3 22/37/4 
f 19/34/1 22/37/4 23/38/5 
f 19/34/1 23/38/5 20/35/2 
f 24/39/6 21/40/3 20/41/2 
f 24/39/6 22/42/4 21/40/3 
f 24/39/6 23/43/5 22/42/4 
f 24/39/6 20/41/2 23/43/5 
f 25/44/1 26/45/2 27/46/3 
f 25/47/1 27/48/3 28/49/4 
f 25/47/1 28/49/4 29/50/5 
f 25/44/1 29/51/5 26/45/2 
f 30/52/6 27/46/3 26/45/2 
f 30/53/6 28/49/4 27/48/3 
f 30/53/6 29/50/5 28/49/4 
f 30/52/6 26/45/2 29/51/5 
f 31/54/1 32/55/2 33/56/3 
f 31/54/1 33/56/3 34/57/4 
f 31/58/1 34/59/4 35/60/5 
f 31/58/1 35/60/5 32/61/2 
f 36/62/6 33/56/3 32/55/2 
f 36/62/6 34/57/4 33/56/3 
f 36/63/6 35/60/5 34/59/4 
f 36/63/6 32/61/2 35/60/5 
f 37/64/1 38/65/2 39/66/3 
f 37/67/1 39/68/3 40/69/4 
f 37/67/1 40/69/4 41/70/5 
f 37/64/1 41/71/5 38/65/2 
f 42/72/6 39/66/3 38/65/2 
f 42/73/6 40/69/4 39/68/3 
f 42/73/6 41/70/5 40/69/4 
f 42/72/6 38/65/2 41/71/5 
f 43/74/1 44/75/2 45/76/3 
f 43/74/1 45/76/3 46/77/4 
f 43/78/1 46/79/4 47/80/5 
f 43/78/1 47/80/5 44/81/2 
f 48/82/6 45/76/3 44/75/2 
f 48/82/6 46/77/4 45/76/3 
f 48/83/6 47/80/5 46/79/4 
f 48/83/6 44/81/2 47/80/5 
f 49/84/1 50/85/2 51/86/3 
f 49/84/1 51/86/3 52/87/4 
f 49/84/1 52/87/4 53/88/5 
f 49/84/1 53/88/5 50/85/2 
f 54/89/6 51/90/3 50/91/2 
f 54/89/6 52/92/4 51/90/3 
f 54/89/6 53/93/5 52/92/4 
f 54/89/6 50/91/2 53/93/5 
f 55/94/1 56/95/2 57/96/3 
f 55/94/1 57/96/3 58/97/4 
f 55/98/1 58/99/4 59/100/5 
f 55/98/1 59/100/5 56/101/2 
f 60/102/6 57/96/3 56/95/2 
f 60/102/6 58/97/4 57/96/3 
f 60/103/6 59/100/5 58/99/4 
f 60/103/6 56/101/2 59/100/5 
f 61/104/1 62/105/2 63/106/3 
f 61/104/1 63/106/3 64/107/4 
f 61/104/1 64/107/4 65/108/5 
f 61/104/1 65/108/5 62/105/2 
f 66/109/6 63/110/3 62/111/2 
f 66/109/6 64/112/4 63/110/3 
f 66/109/6 65/113/5 64/112/4 
f 66/109/6 62/111/2 65/113/5 
f 67/114/1 68/115/2 69/116/3 
f 67/117/1 69/118/3 70/119/4 
f 67/117/1 70/119/4 71/120/5 
f 67/114/1 71/121/5 68/115/2 
f 72/122/6 69/116/3 68/115/2 
f 72/123/6 70/119/4 69/118/3 
f 72/123/6 71/120/5 70/119/4 
f 72/122/6 68/115/2 71/121/5 
f 73/124/2 74/125/2 75/126/6 76/127/6 
f 77/128/1 78/129/1 74/125/2 73/124/2 
f 79/130/4 80/131/4 78/132/1 77/133/1 
f 76/134/6 75/135/6 80/136/4 79/137/4 
f 81/138/7 82/139/7 77/140/1 83/141/1 
f 84/142/8 76/143/8 82/144/7 81/145/7 
f 85/146/5 86/147/5 76/148/8 84/149/8 
f 83/150/1 77/151/1 86/147/5 85/146/5 
f 87/152/9 88/153/9 83/154/10 89/155/10 
f 90/156/11 84/157/11 88/158/9 87/159/9 
f 91/160/12 92/161/12 84/162/11 90/163/11 
f 89/155/10 83/154/10 92/164/12 91/165/12 
f 93/166/7 94/167/7 90/168/8 75/169/8 
f 78/170/13 89/171/13 94/167/7 93/166/7 
f 95/172/14 96/173/14 89/174/13 78/175/13 
f 75/176/8 90/177/8 96/173/14 95/172/14 
f 97/178/7 81/179/7 83/180/1 98/181/1 
f 99/182/8 84/183/8 81/184/7 97/185/7 
f 100/186/5 85/187/5 84/188/8 99/189/8 
f 98/190/1 83/191/1 85/187/5 100/186/5 
f 101/192/2 102/193/2 98/194/15 103/195/15 
f 104/196/11 99/197/11 102/198/2 101/199/2 
f 105/200/4 106/201/4 99/197/11 104/196/11 
f 103/195/15 98/194/15 106/202/4 105/203/4 
f 94/204/7 107/205/7 104/206/8 90/207/8 
f 89/208/13 103/209/13 107/205/7 94/204/7 
f 96/210/14 108/211/14 103/212/13 89/213/13 
f 90/214/8 104/215/8 108/211/14 96/210/14 
f 109/216/7 97/217/7 98/218/1 110/219/1 
f 111/220/8 99/221/8 97/222/7 109/223/7 
f 112/224/5 100/225/5 99/226/8 111/227/8 
f 110/228/1 98/229/1 100/225/5 112/224/5 
f 107/230/7 113/231/7 114/232/8 104/233/8 
f 103/234/13 115/235/13 113/231/7 107/230/7 
f 108/236/14 116/237/14 115/238/13 103/239/13 
f 104/240/8 114/241/8 116/237/14 108/236/14 
f 117/242/3 118/243/3 119/244/1 120/245/1 
f 121/246/6 122/247/6 118/243/3 117/242/3 
f 123/248/5 124/249/5 122/250/6 121/251/6 
f 120/252/1 119/253/1 124/254/5 123/255/5 
f 125/256/16 126/257/16 121/258/6 127/259/6 
f 128/260/17 120/261/17 126/257/16 125/256/16 
f 129/262/12 130/263/12 120/264/17 128/265/17 
f 127/266/6 121/267/6 130/263/12 129/262/12 
f 131/268/3 132/269/3 127/270/6 133/271/6 
f 134/272/1 128/273/1 132/274/3 131/275/3 
f 135/276/5 136/277/5 128/273/1 134/272/1 
f 133/271/6 127/270/6 136/278/5 135/279/5 
f 137/280/2 138/281/2 134/282/1 119/283/1 
f 122/284/6 133/285/6 138/281/2 137/280/2 
f 139/286/4 140/287/4 133/288/6 122/289/6 
f 119/290/1 134/291/1 140/287/4 139/286/4 
f 141/292/3 117/293/3 120/294/1 142/295/1 
f 143/296/6 121/297/6 117/298/3 141/299/3 
f 144/300/5 123/301/5 121/297/6 143/296/6 
f 142/295/1 120/294/1 123/302/5 144/303/5 
f 145/304/2 146/305/2 143/306/6 147/307/6 
f 148/308/1 142/309/1 146/305/2 145/304/2 
f 149/310/4 150/311/4 142/312/1 148/313/1 
f 147/314/6 143/315/6 150/311/4 149/310/4 
f 132/316/3 151/317/3 147/318/6 127/319/6 
f 128/320/1 148/321/1 151/322/3 132/323/3 
f 136/324/5 152/325/5 148/326/1 128/327/1 
f 127/319/6 147/318/6 152/328/5 136/329/5 
f 153/330/3 141/331/3 142/332/1 154/333/1 
f 155/334/6 143/335/6 141/331/3 153/330/3 
f 156/336/5 144/337/5 143/338/6 155/339/6 
f 154/340/1 142/341/1 144/342/5 156/343/5 
f 151/344/3 157/345/3 158/346/6 147/347/6 
f 148/348/1 159/349/1 157/350/3 151/351/3 
f 152/352/5 160/353/5 159/349/1 148/348/1 
f 147/347/6 158/346/6 160/354/5 152/355/5 
f 126/356/2 87/357/2 94/358/3 117/359/3 
f 123/360/5 96/361/5 87/357/2 126/356/2 
f 130/362/4 91/363/4 96/364/5 123/365/5 
f 117/366/3 94/367/3 91/368/4 130/369/4 
f 146/370/2 101/371/2 107/372/18 141/373/18 
f 144/374/19 108/375/19 101/376/2 146/377/2 
f 150/378/4 105/379/4 108/375/19 144/374/19 
f 141/373/18 107/372/18 105/380/4 150/381/4 
f 145/382/2 102/383/2 97/384/3 151/385/3 
f 152/386/5 100/387/5 102/388/2 145/389/2 
f 149/390/4 106/391/4 100/387/5 152/386/5 
f 151/385/3 97/384/3 106/392/4 149/393/4 
f 125/394/20 88/395/20 81/396/21 132/397/21 
f 136/398/19 85/399/19 88/400/20 125/401/20 
f 129/402/22 92/403/22 85/404/19 136/405/19 
f 132/397/21 81/396/21 92/406/22 129/407/22 
# 88 polygons - 96 triangles

